Coordinates
version=1
nRows=15
nColumns=23
inDegrees=yes

Units are S.I. units (second, meters, Newtons, ...)
If the header above contains a line with 'inDegrees', this indicates whether rotational values are in degrees (yes) or radians (no).

endheader
time	pelvis_tilt	pelvis_list	pelvis_rotation	pelvis_tx	pelvis_ty	pelvis_tz	hip_flexion_r	hip_adduction_r	hip_rotation_r	knee_angle_r	knee_angle_r_beta	ankle_angle_r	subtalar_angle_r	mtp_angle_r	hip_flexion_l	hip_adduction_l	hip_rotation_l	knee_angle_l	knee_angle_l_beta	ankle_angle_l	subtalar_angle_l	mtp_angle_l
     22.50000000	    -89.99981598	     89.99992980	    -89.99981598	     -4.99999911	      1.99999958	      2.99999968	    -29.99993480	     19.53754503	     -6.64187152	     44.25823506	      0.77245192	     28.17163634	     29.99282533	      0.00000000	    119.53076792	     21.86241016	    -39.99931078	     13.12362648	      0.22905049	    -39.99994031	    -14.02232488	      0.00000000
     22.50666667	    -89.99981782	     89.99992951	    -89.99981782	     -4.99999916	      1.99999958	      2.99999968	    -29.99993473	     19.57310488	     -6.64127830	     44.23530580	      0.77205173	     28.17067367	     29.99283266	      0.00000000	    119.51254067	     21.87790966	    -39.99931641	     13.09307241	      0.22851722	    -39.99994072	    -14.01241676	      0.00000000
     22.51333333	    -89.99981958	     89.99992916	    -89.99981958	     -4.99999921	      1.99999959	      2.99999969	    -29.99993463	     19.61642381	     -6.64578168	     44.20358054	      0.77149802	     28.14707084	     29.99284959	      0.00000000	    119.49690936	     21.89305316	    -39.99932213	     13.06471374	      0.22802227	    -39.99994113	    -14.00453990	      0.00000000
     22.52000000	    -89.99982127	     89.99992878	    -89.99982127	     -4.99999925	      1.99999959	      2.99999969	    -29.99993450	     19.66719948	     -6.65446235	     44.16395102	      0.77080636	     28.10000909	     29.99287639	      0.00000000	    119.48376095	     21.90741370	    -39.99932786	     13.03864303	      0.22756725	    -39.99994154	    -13.99798020	      0.00000000
     22.52666667	    -89.99982289	     89.99992835	    -89.99982289	     -4.99999929	      1.99999960	      2.99999969	    -29.99993434	     19.72287242	     -6.66767221	     44.11677282	      0.76998294	     28.03427720	     29.99290850	      0.00000000	    119.47288729	     21.92077658	    -39.99933346	     13.01465207	      0.22714853	    -39.99994194	    -13.99293449	      0.00000000
     22.53333333	    -89.99982447	     89.99992789	    -89.99982447	     -4.99999932	      1.99999960	      2.99999970	    -29.99993415	     19.78242172	     -6.68316159	     44.06384528	      0.76905918	     27.95111317	     29.99294606	      0.00000000	    119.46399710	     21.93264468	    -39.99933890	     12.99294693	      0.22676970	    -39.99994235	    -13.98832315	      0.00000000
     22.54000000	    -89.99982602	     89.99992739	    -89.99982602	     -4.99999936	      1.99999961	      2.99999970	    -29.99993395	     19.84270711	     -6.70138465	     44.00629754	      0.76805478	     27.85706805	     29.99298624	      0.00000000	    119.45686181	     21.94278355	    -39.99934409	     12.97331864	      0.22642713	    -39.99994274	    -13.98381897	      0.00000000
     22.54666667	    -89.99982755	     89.99992687	    -89.99982755	     -4.99999939	      1.99999961	      2.99999970	    -29.99993372	     19.90226895	     -6.72102407	     43.94492193	      0.76698358	     27.75823956	     29.99302380	      0.00000000	    119.45099392	     21.95106284	    -39.99934899	     12.95550780	      0.22611627	    -39.99994314	    -13.97880272	      0.00000000
     22.55333333	    -89.99982906	     89.99992633	    -89.99982906	     -4.99999941	      1.99999962	      2.99999971	    -29.99993348	     19.95853587	     -6.74287660	     43.88086321	      0.76586554	     27.66463347	     29.99305518	      0.00000000	    119.44609275	     21.95722901	    -39.99935353	     12.93953163	      0.22583743	    -39.99994353	    -13.97307614	      0.00000000
     22.56000000	    -89.99983057	     89.99992576	    -89.99983057	     -4.99999944	      1.99999962	      2.99999971	    -29.99993324	     20.01042042	     -6.76670880	     43.81477908	      0.76471216	     27.58178799	     29.99307810	      0.00000000	    119.44175912	     21.96122074	    -39.99935768	     12.92512336	      0.22558596	    -39.99994392	    -13.96621017	      0.00000000
     22.56666667	    -89.99983207	     89.99992518	    -89.99983207	     -4.99999946	      1.99999963	      2.99999971	    -29.99993298	     20.05740656	     -6.79250790	     43.74739583	      0.76353610	     27.51388986	     29.99309126	      0.00000000	    119.43769532	     21.96295475	    -39.99936140	     12.91209251	      0.22535853	    -39.99994430	    -13.95789561	      0.00000000
     22.57333333	    -89.99983356	     89.99992457	    -89.99983356	     -4.99999948	      1.99999963	      2.99999972	    -29.99993271	     20.09998912	     -6.82004885	     43.67956178	      0.76235217	     27.46192801	     29.99309413	      0.00000000	    119.43362525	     21.96240425	    -39.99936469	     12.90033592	      0.22515334	    -39.99994468	    -13.94788055	      0.00000000
     22.58000000	    -89.99983504	     89.99992394	    -89.99983504	     -4.99999950	      1.99999963	      2.99999972	    -29.99993243	     20.13945747	     -6.84885126	     43.61225684	      0.76117748	     27.42336463	     29.99308971	      0.00000000	    119.42939913	     21.95951866	    -39.99936754	     12.88964171	      0.22496669	    -39.99994506	    -13.93585484	      0.00000000
     22.58666667	    -89.99983647	     89.99992329	    -89.99983647	     -4.99999952	      1.99999964	      2.99999972	    -29.99993215	     20.17794301	     -6.87832364	     43.54602098	      0.76002144	     27.39822086	     29.99307657	      0.00000000	    119.42487548	     21.95432555	    -39.99936992	     12.87989782	      0.22479662	    -39.99994543	    -13.92186750	      0.00000000
     22.59333333	    -89.99983789	     89.99992262	    -89.99983789	     -4.99999954	      1.99999964	      2.99999973	    -29.99993186	     20.21658811	     -6.90808626	     43.48160480	      0.75889717	     27.38160354	     29.99306074	      0.00000000	    119.41998453	     21.94669236	    -39.99937186	     12.87104076	      0.22464204	    -39.99994580	    -13.90561543	      0.00000000
